HIERARCHY
ROOT Hips
{
	OFFSET 0.000000 0.000000 0.000000
	CHANNELS 6 Xposition Yposition Zposition Xrotation Yrotation Zrotation
	JOINT LeftUpLeg_virtual
	{
		OFFSET 0.000000 0.000000 0.000000
		CHANNELS 3 Xrotation Yrotation Zrotation
		JOINT LeftUpLeg
		{
			OFFSET 13.026900 -6.336304 -1.092800
			CHANNELS 3 Xrotation Yrotation Zrotation
			JOINT LeftLeg
			{
				OFFSET 0.524474 -46.096886 9.782700
				CHANNELS 3 Xrotation Yrotation Zrotation
				JOINT LeftFoot
				{
					OFFSET -0.524474 -53.427422 -12.948200
					CHANNELS 3 Xrotation Yrotation Zrotation
					JOINT LeftToeBase
					{
						OFFSET 0.192200 -14.009700 16.364100
						CHANNELS 3 Xrotation Yrotation Zrotation
						JOINT LeftToe_End
						{
							OFFSET -1.784700 -0.561700 9.474800
							CHANNELS 3 Xrotation Yrotation Zrotation
							End Site
							{
								OFFSET 0 0 0
							}
						}
					}
				}
			}
		}
	}
	JOINT RightUpLeg_virtual
	{
		OFFSET 0.000000 0.000000 0.000000
		CHANNELS 3 Xrotation Yrotation Zrotation
		JOINT RightUpLeg
		{
			OFFSET -12.883000 -6.336304 -1.092800
			CHANNELS 3 Xrotation Yrotation Zrotation
			JOINT RightLeg
			{
				OFFSET -0.524587 -46.096825 9.782800
				CHANNELS 3 Xrotation Yrotation Zrotation
				JOINT RightFoot
				{
					OFFSET 0.524587 -53.427383 -12.948300
					CHANNELS 3 Xrotation Yrotation Zrotation
					JOINT RightToeBase
					{
						OFFSET -0.192200 -14.009700 16.364100
						CHANNELS 3 Xrotation Yrotation Zrotation
						JOINT RightToe_End
						{
							OFFSET 1.784700 -0.561700 9.474800
							CHANNELS 3 Xrotation Yrotation Zrotation
							End Site
							{
								OFFSET 0 0 0
							}
						}
					}
				}
			}
		}
	}
	JOINT Spine_virtual
	{
		OFFSET 0.000000 0.000000 0.000000
		CHANNELS 3 Xrotation Yrotation Zrotation
		JOINT Spine
		{
			OFFSET 0.072000 7.257294 -0.789700
			CHANNELS 3 Xrotation Yrotation Zrotation
			JOINT Spine1
			{
				OFFSET 0.000000 12.508769 -0.658067
				CHANNELS 3 Xrotation Yrotation Zrotation
				JOINT Spine1_split
				{
					OFFSET 0.000000 12.508769 -0.658067
					CHANNELS 3 Xrotation Yrotation Zrotation
					JOINT Spine2
					{
						OFFSET 0.000000 12.508769 -0.658067
						CHANNELS 3 Xrotation Yrotation Zrotation
						JOINT Neck_virtual
						{
							OFFSET 0.000000 0.000000 0.000000
							CHANNELS 3 Xrotation Yrotation Zrotation
							JOINT Neck
							{
								OFFSET 0.000000 14.033295 7.520400
								CHANNELS 3 Xrotation Yrotation Zrotation
								JOINT Head
								{
									OFFSET 0.000000 8.198502 5.703100
									CHANNELS 3 Xrotation Yrotation Zrotation
									JOINT HeadTop_End
									{
										OFFSET 0.000000 17.760803 13.332701
										CHANNELS 3 Xrotation Yrotation Zrotation
										End Site
										{
											OFFSET 0 0 0
										}
									}
								}
							}
						}
						JOINT LeftShoulder_virtual
						{
							OFFSET 0.000000 0.000000 0.000000
							CHANNELS 3 Xrotation Yrotation Zrotation
							JOINT LeftShoulder
							{
								OFFSET 6.292450 5.785301 -0.669000
								CHANNELS 3 Xrotation Yrotation Zrotation
								JOINT LeftShoulder_split
								{
									OFFSET 6.292450 5.785301 -0.669000
									CHANNELS 3 Xrotation Yrotation Zrotation
									JOINT LeftArm
									{
										OFFSET 13.907140 -6.093903 1.965100
										CHANNELS 3 Xrotation Yrotation Zrotation
										JOINT LeftForeArm
										{
											OFFSET 34.140198 0.000000 0.000000
											CHANNELS 3 Xrotation Yrotation Zrotation
											JOINT LeftHand
											{
												OFFSET 40.960209 0.000000 0.000000
												CHANNELS 3 Xrotation Yrotation Zrotation
												End Site
												{
													OFFSET 0 0 0
												}
											}
										}
									}
								}
							}
						}
						JOINT RightShoulder_virtual
						{
							OFFSET 0.000000 0.000000 0.000000
							CHANNELS 3 Xrotation Yrotation Zrotation
							JOINT RightShoulder
							{
								OFFSET -6.292450 5.785301 -0.669000
								CHANNELS 3 Xrotation Yrotation Zrotation
								JOINT RightShoulder_split
								{
									OFFSET -6.292450 5.785301 -0.669000
									CHANNELS 3 Xrotation Yrotation Zrotation
									JOINT RightArm
									{
										OFFSET -13.907140 -6.093903 1.965100
										CHANNELS 3 Xrotation Yrotation Zrotation
										JOINT RightForeArm
										{
											OFFSET -34.140198 0.000000 0.000000
											CHANNELS 3 Xrotation Yrotation Zrotation
											JOINT RightHand
											{
												OFFSET -40.960209 0.000000 0.000000
												CHANNELS 3 Xrotation Yrotation Zrotation
												End Site
												{
													OFFSET 0 0 0
												}
											}
										}
									}
								}
							}
						}
					}
				}
			}
		}
	}
}
MOTION
Frames: 9
Frame Time: 0.03333333
6.529822 104.442818 -1.892754 0.000000 0.000000 0.000000 171.224141 -75.919028 -178.319546 -9.996433 18.232823 11.847763 41.245972 13.948669 -6.523380 -18.317049 17.383176 -19.768529 -0.888827 -0.273980 -0.199796 0.000000 0.000000 0.000000 166.975121 -77.712117 178.315762 -38.812977 12.551259 -14.995219 37.027722 -1.633635 -9.729283 -10.096893 18.756318 14.771196 0.575231 1.455459 0.943091 0.000000 0.000000 0.000000 170.021481 -77.979443 -179.146368 26.019517 -11.998540 7.667042 22.667762 -2.610890 0.824219 0.648985 -0.883495 1.408837 0.000000 0.000000 0.000000 21.857548 -2.870911 0.720095 12.411927 -2.976766 -5.705143 -26.429958 17.583108 -8.882387 0.000000 0.000000 0.000000 23.815785 -3.184766 1.080269 -0.698900 -10.691754 10.069489 -3.076354 -2.575837 1.315376 16.538584 18.136217 -75.727182 10.712988 -81.476609 8.951059 0.000000 0.000000 0.000000 22.407846 -2.773567 1.434603 6.893693 16.434219 13.120444 6.734686 4.218831 5.160032 -61.350979 52.648717 51.559667 178.004401 66.444087 -176.925832 0.000000 0.000000 0.000000 
6.498076 103.793861 -2.406898 0.000000 0.000000 0.000000 176.910109 -78.609221 -171.797426 -10.195505 19.374747 12.854719 42.364228 12.077850 -6.032482 -19.751254 14.608639 -19.828504 -1.897156 -0.233168 -0.042900 0.000000 0.000000 0.000000 173.059631 -81.458769 -174.983245 -38.620874 10.231048 -16.792587 40.109794 -2.447863 -9.577202 -10.479329 16.085825 13.752153 1.183004 1.496036 0.817294 0.000000 0.000000 0.000000 176.746950 -80.288232 -172.071945 24.836154 -12.763612 7.130188 22.432530 -2.885021 1.074256 1.432369 -0.514885 1.478072 0.000000 0.000000 0.000000 21.616797 -3.183170 0.917454 11.546255 -2.758426 -7.378802 -22.947031 19.253699 -10.518731 0.000000 0.000000 0.000000 23.497613 -3.418294 1.356884 -0.657039 -9.591557 9.143296 -2.983732 -2.911499 1.243855 8.533246 26.776037 -70.976321 -2.129325 -86.025468 -2.964176 0.000000 0.000000 0.000000 22.111045 -3.044668 1.607642 7.235714 17.729008 13.320936 5.566620 3.971146 5.003993 -56.005608 46.933372 45.587609 177.636923 65.998055 -176.679194 0.000000 0.000000 0.000000 
6.357660 103.165131 -3.223183 0.000000 0.000000 0.000000 -170.395885 -82.257266 -158.456140 -10.854582 19.867987 14.283360 43.064175 9.816090 -5.067779 -20.469817 11.116275 -20.495038 -2.282115 -0.160564 0.024386 0.000000 0.000000 0.000000 -166.229469 -85.839475 -153.840380 -38.209851 7.822739 -18.687884 43.620347 -3.417092 -9.197937 -10.459805 13.116230 13.120598 1.494268 1.501527 0.578672 0.000000 0.000000 0.000000 -171.065639 -83.397224 -159.881273 23.271168 -12.858060 6.826688 21.857346 -3.097829 1.347342 1.711274 0.145759 1.203613 0.000000 0.000000 0.000000 21.374959 -3.467293 1.138172 9.947243 -2.541686 -7.687003 -19.379733 20.545754 -12.023520 0.000000 0.000000 0.000000 22.991641 -3.570564 1.623217 -0.583023 -8.689298 8.609079 -2.255705 -2.442753 0.796463 1.147753 29.855167 -66.991875 -155.344443 -86.766926 -155.294214 0.000000 0.000000 0.000000 21.736083 -3.292152 1.729660 7.573586 19.044032 13.234331 4.117852 3.692915 4.414830 -53.810744 42.204408 43.151014 178.140363 66.204443 -177.338977 0.000000 0.000000 0.000000 
6.193625 102.604614 -3.914391 0.000000 0.000000 0.000000 -131.722056 -85.682756 -119.494446 -11.924341 19.552084 15.765046 43.303686 7.721561 -3.788452 -20.667785 7.384573 -21.266223 -2.032967 -0.059038 -0.044333 0.000000 0.000000 0.000000 -72.304376 -86.815495 -59.674810 -37.270392 5.786756 -20.239599 47.001909 -4.414465 -8.775020 -10.381771 10.046244 12.924832 1.496414 1.460938 0.365343 0.000000 0.000000 0.000000 -137.875851 -86.280903 -126.967712 21.523299 -12.253159 6.571366 20.961106 -3.161562 1.424728 1.258352 0.628075 0.630691 0.000000 0.000000 0.000000 21.038299 -3.653676 1.118615 8.069851 -2.310224 -6.673342 -15.797591 21.425793 -12.962093 0.000000 0.000000 0.000000 22.289885 -3.638779 1.614337 -0.496396 -8.134920 8.260094 -1.649768 -1.885498 0.009140 -2.753184 27.466972 -65.556408 -171.521719 -78.667974 -170.893095 0.000000 0.000000 0.000000 21.289391 -3.451186 1.625567 7.775259 20.117663 12.888243 2.606559 3.864819 3.925216 -53.363305 38.214297 42.918057 179.239627 67.146552 -178.708471 0.000000 0.000000 0.000000 
5.941859 102.065598 -4.426800 0.000000 0.000000 0.000000 -61.753625 -84.373327 -49.585579 -13.430286 18.454831 17.091911 43.428392 6.125338 -2.386588 -20.392824 3.641159 -21.771955 -1.661093 0.049833 -0.136746 0.000000 0.000000 0.000000 -36.670613 -81.986312 -24.045013 -35.733344 4.280905 -21.294600 49.636238 -5.390452 -8.494879 -10.426633 6.997351 13.106389 1.247152 1.382576 0.285871 0.000000 0.000000 0.000000 -67.005467 -85.754719 -56.412523 19.811157 -10.994206 6.137055 19.774557 -3.013863 1.191668 0.449231 1.002501 0.110621 0.000000 0.000000 0.000000 20.442244 -3.619232 0.737675 6.304124 -1.968450 -4.701573 -12.248798 22.147310 -13.076060 0.000000 0.000000 0.000000 21.310240 -3.547460 1.212570 -0.439026 -7.840402 7.857604 -1.527727 -1.605681 -0.965539 -2.748530 21.328659 -66.397492 -176.206122 -70.972352 -175.374519 0.000000 0.000000 0.000000 20.695043 -3.396640 1.206044 7.852761 20.359718 11.989354 1.119553 5.184903 3.811745 -53.374192 34.780088 43.453554 -179.344826 68.735916 179.490241 0.000000 0.000000 0.000000 
5.610521 101.359512 -4.539631 0.000000 0.000000 0.000000 -35.676165 -79.264864 -23.856896 -15.474010 16.793422 18.078114 43.931647 5.109589 -1.027862 -19.818952 0.102297 -21.724515 -1.724107 0.119486 -0.131461 0.000000 0.000000 0.000000 -26.979707 -76.478243 -14.539724 -33.767079 3.242373 -22.000473 51.381823 -6.271945 -8.406823 -10.783669 4.193556 13.562437 1.103060 1.276767 0.378493 0.000000 0.000000 0.000000 -37.856624 -81.672397 -27.514787 18.213263 -9.115858 5.428257 18.269013 -2.588972 0.703201 -0.335944 0.625285 0.082107 0.000000 0.000000 0.000000 19.328561 -3.278629 0.088811 4.903878 -1.473974 -2.411966 -8.796888 22.860659 -12.326936 0.000000 0.000000 0.000000 19.899410 -3.232196 0.456037 -0.439949 -7.460612 7.104645 -1.984333 -1.509223 -2.032543 -0.525210 13.178525 -67.554266 -178.952418 -65.476577 -178.137235 0.000000 0.000000 0.000000 19.747539 -3.055629 0.542668 7.730747 19.689000 10.653779 0.047188 7.048190 4.103003 -53.695655 31.864158 44.363858 -177.881321 70.541763 177.547762 0.000000 0.000000 0.000000 
5.292373 100.486526 -4.301327 0.000000 0.000000 0.000000 -25.052313 -73.477413 -13.842853 -18.164907 14.791815 18.568586 45.297767 4.610953 0.138764 -19.168929 -2.977916 -20.774780 -2.160723 0.128551 -0.061866 0.000000 0.000000 0.000000 -21.682936 -70.936883 -9.598618 -31.669374 2.375741 -22.791557 52.439378 -6.892023 -8.444167 -11.400200 1.851897 14.292090 1.186789 1.183551 0.599635 0.000000 0.000000 0.000000 -27.017370 -76.718324 -16.902423 16.762842 -6.753514 4.413661 16.507966 -1.955470 0.178485 -0.581803 0.125361 0.570281 0.000000 0.000000 0.000000 17.628928 -2.624872 -0.626713 3.896037 -0.799246 -0.336766 -5.846070 23.529436 -10.789101 0.000000 0.000000 0.000000 18.153430 -2.679149 -0.375183 -0.504007 -6.850781 5.757695 -2.961248 -1.553369 -3.329517 2.182037 4.992922 -67.629938 179.283327 -62.301803 -179.876775 0.000000 0.000000 0.000000 18.407696 -2.366396 -0.102698 7.318301 18.220810 9.012442 -0.003232 9.288858 4.605006 -54.226057 29.381162 45.496013 -176.741390 72.011094 175.914254 0.000000 0.000000 0.000000 
4.931979 99.514114 -4.026814 0.000000 0.000000 0.000000 -18.878955 -67.714338 -8.508228 -21.441943 12.597749 18.588585 47.447927 4.406695 1.020580 -18.410850 -5.440176 -19.190467 -2.714871 0.114781 0.010373 0.000000 0.000000 0.000000 -18.028114 -65.559817 -6.485174 -29.727025 1.386081 -23.849718 52.992938 -7.208308 -8.516037 -12.075529 0.056394 15.455274 1.390487 1.104067 0.837814 0.000000 0.000000 0.000000 -20.597624 -71.491460 -10.847880 15.397183 -4.014075 3.213557 14.569678 -1.158700 -0.212228 -0.433402 -0.380200 1.292975 0.000000 0.000000 0.000000 15.348562 -1.682264 -1.152595 3.211689 -0.104010 1.286442 -3.509033 23.874636 -8.808943 0.000000 0.000000 0.000000 16.171976 -1.870914 -1.039860 -0.610057 -5.945090 3.800625 -4.371668 -1.787752 -4.557631 3.327230 -1.307259 -66.448370 178.236218 -61.267951 179.498683 0.000000 0.000000 0.000000 16.685438 -1.303493 -0.574441 6.665412 16.456576 7.333115 0.892366 10.877821 5.004926 -54.939026 27.585524 47.078237 -175.890321 72.737444 174.593869 0.000000 0.000000 0.000000 
4.538502 98.505226 -3.664722 0.000000 0.000000 0.000000 -14.649287 -62.486054 -5.300541 -25.049138 10.349805 18.292906 50.024326 4.279876 1.528082 -17.638571 -7.131842 -17.532759 -3.254185 0.115071 0.029873 0.000000 0.000000 0.000000 -15.219388 -60.563055 -4.430643 -28.016659 0.067372 -25.177109 53.270104 -7.226335 -8.542054 -12.804331 -1.210467 17.141067 1.185183 1.010029 0.981915 0.000000 0.000000 0.000000 -15.605621 -66.411500 -6.533501 13.987650 -1.065530 1.994102 12.452030 -0.279864 -0.428763 0.370718 -1.154763 1.976873 0.000000 0.000000 0.000000 12.579790 -0.574310 -1.391046 2.635517 0.507879 2.298395 -1.836563 23.522758 -6.759189 0.000000 0.000000 0.000000 14.017024 -0.908568 -1.387471 -0.677256 -4.819566 1.282844 -5.978679 -2.155244 -5.904824 1.408869 -5.213564 -64.320725 178.021900 -61.460207 -179.884233 0.000000 0.000000 0.000000 14.629729 -0.044549 -0.791264 5.842385 14.753180 5.991678 2.340881 11.231149 4.570267 -55.861918 26.437857 49.546851 -175.551913 72.571634 173.803043 0.000000 0.000000 0.000000 
